<svg width="35" height="36" viewBox="0 0 35 36" fill="none" xmlns="http://www.w3.org/2000/svg">
<path fill-rule="evenodd" clip-rule="evenodd" d="M34.7412 17.7715C34.7412 27.2984 27.0181 35.0215 17.4912 35.0215C7.9643 35.0215 0.241211 27.2984 0.241211 17.7715C0.241211 8.24457 7.9643 0.521484 17.4912 0.521484C27.0181 0.521484 34.7412 8.24457 34.7412 17.7715ZM21.636 11.3625C24.0356 12.1865 25.7908 13.4204 25.4465 15.7166C25.1964 17.398 24.2608 18.2112 23.0177 18.4959C24.7232 19.3803 25.3044 21.0588 24.7643 23.0883C23.7389 26.009 21.3014 26.2549 18.0595 25.6444L17.2723 28.784L15.3719 28.3116L16.1483 25.2141C15.6556 25.0922 15.1521 24.9617 14.6334 24.8226L13.8538 27.9352L11.9556 27.4628L12.7417 24.3168L8.91394 23.3547L9.85816 21.1869C9.85816 21.1869 11.2593 21.5568 11.2398 21.5298C11.778 21.6625 12.0173 21.3131 12.1115 21.0812L14.2447 12.5597C14.2685 12.1574 14.1288 11.6505 13.3589 11.4585C13.3882 11.438 11.9783 11.1166 11.9783 11.1166L12.484 9.09439L16.3172 10.0403L17.0968 6.92978L18.9961 7.40218L18.2327 10.4512C18.7438 10.5666 19.2571 10.6841 19.7563 10.8082L20.5142 7.77859L22.4146 8.25098L21.636 11.3625ZM17.0885 16.5512C18.383 16.8944 21.1999 17.6412 21.6908 15.6831C22.1917 13.6797 19.4551 13.0747 18.1151 12.7784C17.9633 12.7448 17.8294 12.7152 17.7201 12.688L16.7737 16.4693C16.8638 16.4916 16.9696 16.5196 17.0882 16.5511L17.0884 16.5511L17.0885 16.5512ZM15.6222 22.6392C17.1726 23.0476 20.5637 23.9409 21.1032 21.7832C21.6555 19.5771 18.3677 18.8423 16.7635 18.4838L16.7632 18.4837C16.5841 18.4437 16.426 18.4083 16.2966 18.3761L15.2527 22.5436C15.3588 22.5699 15.483 22.6026 15.6221 22.6392L15.6222 22.6392Z" fill="#111827"/>
</svg>
