<svg width="16" height="17" viewBox="0 0 16 17" fill="none" xmlns="http://www.w3.org/2000/svg">
<path d="M1.5834 0.767578C1.08187 0.767578 0.675293 1.17415 0.675293 1.67569C0.675293 2.17722 1.08187 2.58379 1.5834 2.58379H2.69059L2.96807 3.69372C2.97098 3.70656 2.97417 3.71929 2.97762 3.73191L4.21013 8.66195L3.39957 9.47251C2.25542 10.6167 3.06575 12.573 4.68383 12.573H12.4807C12.9822 12.573 13.3888 12.1664 13.3888 11.6649C13.3888 11.1633 12.9822 10.7568 12.4807 10.7568L4.68383 10.7568L5.59194 9.84866H11.5726C11.9166 9.84866 12.231 9.65432 12.3848 9.34667L15.1092 3.89802C15.2499 3.61652 15.2349 3.28221 15.0694 3.01448C14.9039 2.74676 14.6116 2.58379 14.2969 2.58379H4.5627L4.28061 1.45544C4.17955 1.05118 3.81632 0.767578 3.39962 0.767578H1.5834Z" fill="#F9FAFB"/>
<path d="M13.3888 14.8433C13.3888 15.5956 12.7789 16.2054 12.0266 16.2054C11.2743 16.2054 10.6645 15.5956 10.6645 14.8433C10.6645 14.091 11.2743 13.4811 12.0266 13.4811C12.7789 13.4811 13.3888 14.091 13.3888 14.8433Z" fill="#F9FAFB"/>
<path d="M4.76178 16.2054C5.51408 16.2054 6.12394 15.5956 6.12394 14.8433C6.12394 14.091 5.51408 13.4811 4.76178 13.4811C4.00948 13.4811 3.39962 14.091 3.39962 14.8433C3.39962 15.5956 4.00948 16.2054 4.76178 16.2054Z" fill="#F9FAFB"/>
</svg>
