<svg width="32" height="33" viewBox="0 0 32 33" fill="none" xmlns="http://www.w3.org/2000/svg">
<g clip-path="url(#clip0_2828_113757)">
<path d="M16 32.3789C24.8366 32.3789 32 25.2155 32 16.3789C32 7.54235 24.8366 0.378906 16 0.378906C7.16344 0.378906 0 7.54235 0 16.3789C0 25.2155 7.16344 32.3789 16 32.3789Z" fill="#26A17B"/>
<path fill-rule="evenodd" clip-rule="evenodd" d="M17.9228 17.7613V17.7593C17.8128 17.7673 17.2458 17.8013 15.9808 17.8013C14.9708 17.8013 14.2598 17.7713 14.0098 17.7593V17.7623C10.1218 17.5913 7.21978 16.9143 7.21978 16.1043C7.21978 15.2953 10.1218 14.6183 14.0098 14.4443V17.0883C14.2638 17.1063 14.9918 17.1493 15.9978 17.1493C17.2048 17.1493 17.8098 17.0993 17.9228 17.0893V14.4463C21.8028 14.6193 24.6978 15.2963 24.6978 16.1043C24.6978 16.9143 21.8028 17.5893 17.9228 17.7613ZM17.9228 14.1713V11.8053H23.3368V8.19727H8.59578V11.8053H14.0098V14.1703C9.60978 14.3723 6.30078 15.2443 6.30078 16.2883C6.30078 17.3323 9.60978 18.2033 14.0098 18.4063V25.9883H17.9228V18.4043C22.3158 18.2023 25.6168 17.3313 25.6168 16.2883C25.6168 15.2453 22.3158 14.3743 17.9228 14.1713Z" fill="white"/>
</g>
<defs>
<clipPath id="clip0_2828_113757">
<rect width="32" height="32" fill="white" transform="translate(0 0.378906)"/>
</clipPath>
</defs>
</svg>
