<svg width="818" height="359" viewBox="0 0 818 359" fill="none" xmlns="http://www.w3.org/2000/svg">
<g clip-path="url(#clip0_208_17113)">
<rect y="25" width="385" height="492" rx="48" fill="url(#paint0_linear_208_17113)"/>
<rect x="433" y="25" width="385" height="492" rx="48" fill="url(#paint1_linear_208_17113)"/>
<rect x="478" y="134" width="311" height="12" rx="6" fill="#D1D5DB"/>
<rect x="567" y="154" width="133" height="12" rx="6" fill="#D1D5DB"/>
<rect x="473" y="200" width="68" height="68" rx="16" fill="#D1D5DB"/>
<rect x="557" y="200" width="68" height="68" rx="16" fill="#D1D5DB"/>
<rect x="642" y="200" width="68" height="68" rx="16" fill="#D1D5DB"/>
<rect x="726" y="200" width="68" height="68" rx="16" fill="#D1D5DB"/>
<path d="M519.008 232.984L511 235.484L516.039 242.672L511.625 245.875L506.586 238.297L501.547 245.875L497.094 242.672L502.211 235.484L494.203 232.984L495.961 228.023L503.891 230.836V221.812H509.398V230.836L517.25 228.023L519.008 232.984Z" fill="#9CA3AF"/>
<path d="M603.008 232.984L595 235.484L600.039 242.672L595.625 245.875L590.586 238.297L585.547 245.875L581.094 242.672L586.211 235.484L578.203 232.984L579.961 228.023L587.891 230.836V221.812H593.398V230.836L601.25 228.023L603.008 232.984Z" fill="#9CA3AF"/>
<path d="M688.008 232.984L680 235.484L685.039 242.672L680.625 245.875L675.586 238.297L670.547 245.875L666.094 242.672L671.211 235.484L663.203 232.984L664.961 228.023L672.891 230.836V221.812H678.398V230.836L686.25 228.023L688.008 232.984Z" fill="#9CA3AF"/>
<path d="M772.008 232.984L764 235.484L769.039 242.672L764.625 245.875L759.586 238.297L754.547 245.875L750.094 242.672L755.211 235.484L747.203 232.984L748.961 228.023L756.891 230.836V221.812H762.398V230.836L770.25 228.023L772.008 232.984Z" fill="#9CA3AF"/>
<path d="M594.599 12.4521C594.834 10.9043 595.811 9.59102 597.232 8.93289C602.796 6.35513 617.616 0 628.5 0C639.384 0 654.205 6.35513 659.768 8.93289C661.189 9.59102 662.166 10.9043 662.401 12.4521C663.422 19.1769 665.783 38.2252 662 50.5C657.175 66.1571 638.709 82.6227 631.453 88.6306C629.722 90.0639 627.279 90.0639 625.547 88.6306C618.291 82.6227 599.825 66.1571 595 50.5C591.217 38.2252 593.579 19.1769 594.599 12.4521Z" fill="#28776D"/>
<path fill-rule="evenodd" clip-rule="evenodd" d="M293.812 105.562V100.688C293.812 93.9565 299.269 88.5 306 88.5C312.731 88.5 318.188 93.9565 318.188 100.688V105.562C320.88 105.562 323.062 107.745 323.062 110.438V122.625C323.062 125.317 320.88 127.5 318.188 127.5H293.812C291.12 127.5 288.938 125.317 288.938 122.625V110.438C288.938 107.745 291.12 105.562 293.812 105.562ZM313.312 100.688V105.562H298.688V100.688C298.688 96.6489 301.961 93.375 306 93.375C310.039 93.375 313.312 96.6489 313.312 100.688Z" fill="#9CA3AF"/>
<circle cx="628" cy="39" r="5" fill="#D9D9D9"/>
<rect x="626" y="39" width="4" height="15" fill="#D9D9D9"/>
</g>
<defs>
<linearGradient id="paint0_linear_208_17113" x1="192.5" y1="25" x2="192.5" y2="427" gradientUnits="userSpaceOnUse">
<stop stop-color="#E5E7EB"/>
<stop offset="1" stop-color="#E5E7EB" stop-opacity="0"/>
</linearGradient>
<linearGradient id="paint1_linear_208_17113" x1="625.5" y1="25" x2="625.5" y2="427" gradientUnits="userSpaceOnUse">
<stop stop-color="#E5E7EB"/>
<stop offset="1" stop-color="#E5E7EB" stop-opacity="0"/>
</linearGradient>
<clipPath id="clip0_208_17113">
<rect width="818" height="359" fill="white"/>
</clipPath>
</defs>
</svg>
