<svg width="671" height="257" viewBox="0 0 671 257" fill="none" xmlns="http://www.w3.org/2000/svg">
<rect y="0.921875" width="547" height="117" rx="58.5" fill="#E5E7EB"/>
<path d="M106.194 39.5606C106.15 39.2429 105.874 39.0667 105.645 39.0475C105.418 39.0284 100.965 38.9603 100.965 38.9603C100.965 38.9603 97.2403 35.3237 96.8724 34.9538C96.5045 34.5839 95.786 34.6955 95.5066 34.7793C95.5032 34.7811 94.8072 34.9974 93.6358 35.3621C93.4397 34.7235 93.1515 33.9382 92.7402 33.1495C91.4144 30.6053 89.4724 29.2599 87.126 29.2564C87.1226 29.2564 87.1208 29.2564 87.1173 29.2564C86.9542 29.2564 86.7928 29.2721 86.6297 29.2861C86.5603 29.2023 86.4909 29.1203 86.418 29.04C85.3957 27.9407 84.0855 27.405 82.5149 27.4521C79.4848 27.5393 76.4669 29.7398 74.0198 33.6485C72.2982 36.3987 70.9879 39.8538 70.6166 42.5288C67.1369 43.6124 64.7038 44.3697 64.65 44.3872C62.8937 44.9421 62.8382 44.9962 62.6091 46.661C62.439 47.919 57.8435 83.6496 57.8435 83.6496L96.3553 90.3469L113.047 86.1745C113.047 86.1745 106.237 39.8782 106.194 39.5606ZM91.7077 35.9624C90.8209 36.2381 89.8125 36.5522 88.7191 36.8925C88.6966 35.3499 88.5144 33.2036 87.7994 31.3486C90.0989 31.7866 91.2304 34.4024 91.7077 35.9624ZM86.7043 37.5207C84.686 38.1488 82.4836 38.8346 80.2744 39.5222C80.8957 37.1298 82.0741 34.7479 83.5215 33.1861C84.0595 32.605 84.8126 31.9576 85.7047 31.5877C86.5429 33.3467 86.7251 35.8368 86.7043 37.5207ZM82.5756 29.4798C83.2871 29.4641 83.8859 29.6211 84.3979 29.9596C83.5788 30.3872 82.7873 31.0014 82.0446 31.8023C80.1199 33.8789 78.6448 37.1019 78.0565 40.2115C76.2221 40.7821 74.4276 41.3423 72.7754 41.8553C73.8185 36.9605 77.8985 29.6159 82.5756 29.4798Z" fill="#95BF47"/>
<path d="M105.647 39.0496C105.42 39.0304 100.966 38.9624 100.966 38.9624C100.966 38.9624 97.2421 35.3258 96.8742 34.9559C96.7371 34.818 96.5514 34.7465 96.3569 34.7168L96.3587 90.3455L113.049 86.1749C113.049 86.1749 106.239 39.8803 106.195 39.5626C106.152 39.245 105.874 39.0688 105.647 39.0496Z" fill="#5E8E3E"/>
<path d="M87.1049 47.6782L85.1664 54.9704C85.1664 54.9704 83.004 53.981 80.4408 54.1433C76.6817 54.3824 76.6417 56.766 76.68 57.3646C76.8848 60.626 85.418 61.338 85.8971 68.9775C86.2736 74.9873 82.7263 79.0985 77.6154 79.423C71.4805 79.8121 68.1033 76.1738 68.1033 76.1738L69.4032 70.6143C69.4032 70.6143 72.8029 73.1934 75.5241 73.0207C77.3013 72.9072 77.9364 71.4537 77.8722 70.4258C77.605 66.1715 70.6561 66.4228 70.2171 59.4324C69.8474 53.5501 73.6898 47.5892 82.1675 47.0517C85.4336 46.8406 87.1049 47.6782 87.1049 47.6782Z" fill="white"/>
<path d="M135.027 62.9482C133.108 61.901 132.122 61.0184 132.122 59.8051C132.122 58.2613 133.492 57.2695 135.632 57.2695C138.122 57.2695 140.346 58.3166 140.346 58.3166L142.1 52.9132C142.1 52.9132 140.487 51.6445 135.74 51.6445C129.134 51.6445 124.555 55.4487 124.555 60.7968C124.555 63.8291 126.693 66.1448 129.545 67.7977C131.848 69.12 132.671 70.0581 132.671 71.4358C132.671 72.8689 131.519 74.0268 129.381 74.0268C126.195 74.0268 123.186 72.3721 123.186 72.3721L121.322 77.7756C121.322 77.7756 124.102 79.65 128.779 79.65C135.578 79.65 140.458 76.2871 140.458 70.2225C140.456 66.9722 137.99 64.6564 135.027 62.9482Z" fill="#6B7280"/>
<path d="M162.114 51.5909C158.769 51.5909 156.138 53.1902 154.11 55.615L154 55.5596L156.905 40.2891H149.338L141.992 79.1551H149.559L152.08 65.8697C153.067 60.8523 155.643 57.7663 158.057 57.7663C159.756 57.7663 160.415 58.9242 160.415 60.5788C160.415 61.6259 160.305 62.8946 160.086 63.9417L157.236 79.1569H164.803L167.763 63.4449C168.092 61.7903 168.312 59.8069 168.312 58.4828C168.309 54.1819 166.061 51.5909 162.114 51.5909Z" fill="#6B7280"/>
<path d="M185.416 51.5908C176.313 51.5908 170.284 59.8605 170.284 69.0664C170.284 74.9648 173.902 79.7054 180.701 79.7054C189.638 79.7054 195.67 71.6574 195.67 62.2299C195.67 56.7727 192.489 51.5908 185.416 51.5908ZM181.688 73.864C179.11 73.864 178.014 71.659 178.014 68.9019C178.014 64.5473 180.262 57.4357 184.374 57.4357C187.061 57.4357 187.937 59.7514 187.937 62.0118C187.937 66.6969 185.691 73.864 181.688 73.864Z" fill="#6B7280"/>
<path d="M215.023 51.5908C209.916 51.5908 207.018 56.1116 207.018 56.1116H206.909L207.348 52.0322H200.659C200.331 54.7893 199.726 58.9777 199.124 62.1208L193.86 89.9602H201.427L203.509 78.7136H203.675C203.675 78.7136 205.227 79.7054 208.116 79.7054C216.998 79.7054 222.809 70.5549 222.809 61.2918C222.809 56.167 220.561 51.5908 215.023 51.5908ZM207.786 73.9731C205.822 73.9731 204.659 72.8706 204.659 72.8706L205.921 65.7589C206.799 61.0183 209.265 57.8752 211.898 57.8752C214.201 57.8752 214.913 60.0249 214.913 62.0655C214.913 66.9721 212.007 73.9731 207.786 73.9731Z" fill="#6B7280"/>
<path d="M233.611 40.6748C231.199 40.6748 229.28 42.6046 229.28 45.0848C229.28 47.3452 230.705 48.889 232.843 48.889H232.953C235.311 48.889 237.339 47.2897 237.394 44.4791C237.394 42.274 235.914 40.6748 233.611 40.6748Z" fill="#6B7280"/>
<path d="M223.03 79.1549H230.595L235.75 52.1982H228.128L223.03 79.1549Z" fill="#6B7280"/>
<path d="M254.995 52.1436H249.731L250.004 50.875C250.443 48.284 251.979 45.9682 254.501 45.9682C255.847 45.9682 256.912 46.3542 256.912 46.3542L258.393 40.4004C258.393 40.4004 257.077 39.7393 254.28 39.7393C251.593 39.7393 248.908 40.5111 246.878 42.2748C244.301 44.4799 243.095 47.6765 242.492 50.875L242.274 52.1436H238.764L237.667 57.8777H241.178L237.175 79.1574H244.742L248.745 57.8777H253.953L254.995 52.1436Z" fill="#6B7280"/>
<path d="M273.197 52.199C273.197 52.199 268.467 64.181 266.343 70.7217H266.233C266.089 68.6153 264.369 52.199 264.369 52.199H256.418L260.971 76.9506C261.081 77.5011 261.026 77.8334 260.806 78.2193C259.927 79.9276 258.448 81.5822 256.693 82.7955C255.268 83.8425 253.678 84.5037 252.418 84.945L254.501 91.3956C256.036 91.0651 259.215 89.7964 261.902 87.2608C265.357 84.0087 268.536 78.9912 271.825 72.1547L281.092 52.1973H273.197V52.199Z" fill="#6B7280"/>
<rect x="451" y="44.6523" width="48" height="29.5385" rx="14.7692" fill="#D1D5DB"/>
<rect x="452.846" y="46.498" width="25.8462" height="25.8462" rx="12.9231" fill="white"/>
<rect x="557" y="0.921875" width="102" height="129" rx="51" fill="#E5E7EB"/>
<path d="M608 76.7969L608 76.7806M608 65.4219L608 65.4056M608 54.0469L608 54.0306M608 75.1719C608.897 75.1719 609.625 75.8994 609.625 76.7969C609.625 77.6943 608.897 78.4219 608 78.4219C607.103 78.4219 606.375 77.6943 606.375 76.7969C606.375 75.8994 607.103 75.1719 608 75.1719ZM608 63.7969C608.897 63.7969 609.625 64.5244 609.625 65.4219C609.625 66.3193 608.897 67.0469 608 67.0469C607.103 67.0469 606.375 66.3193 606.375 65.4219C606.375 64.5244 607.103 63.7969 608 63.7969ZM608 52.4219C608.897 52.4219 609.625 53.1494 609.625 54.0469C609.625 54.9443 608.897 55.6719 608 55.6719C607.103 55.6719 606.375 54.9443 606.375 54.0469C606.375 53.1494 607.103 52.4219 608 52.4219Z" stroke="#6B7280" stroke-width="2.67" stroke-linecap="round" stroke-linejoin="round"/>
<rect y="141.922" width="671" height="115" rx="57.5" fill="#E5E7EB"/>
<g clip-path="url(#clip0_3148_43161)">
<path fill-rule="evenodd" clip-rule="evenodd" d="M48.6317 180.007C49.7371 177.352 52.5005 175.45 55.3825 175.45C77.1351 175.45 98.8877 175.45 120.68 175.45C122.575 175.41 124.47 176.123 125.851 177.391C127.431 178.818 128.339 180.958 128.299 183.097C128.299 191.458 128.299 199.819 128.299 208.22C128.26 211.984 124.983 215.392 121.233 215.471C113.297 215.511 105.362 215.471 97.427 215.471C98.4929 218.126 99.5588 220.741 100.625 223.396C95.8873 220.781 91.2289 218.087 86.452 215.511C76.0297 215.432 65.5679 215.511 55.1061 215.471C51.3557 215.352 48.079 211.984 48.0395 208.22C48 200.017 48.0395 191.815 48 183.652C48 182.424 48.1184 181.156 48.6317 180.007Z" fill="#945C87"/>
<path fill-rule="evenodd" clip-rule="evenodd" d="M80.5304 180.601C81.7147 179.333 84.0045 179.729 84.9125 181.196C85.3862 181.948 85.4257 182.979 85.0309 183.771C83.3728 187.1 82.6622 190.785 82.0306 194.391C81.2805 199.106 80.6488 203.901 80.8857 208.695C80.9646 209.924 80.3725 211.39 79.0697 211.707C77.8458 211.984 76.701 211.152 75.9114 210.281C72.3583 206.437 70.3449 201.484 68.8842 196.531C67.4235 199.423 65.9628 202.355 64.5416 205.248C63.5546 207.229 62.4887 209.25 60.9096 210.835C60.2385 211.509 59.0936 212.103 58.2251 211.43C56.9223 210.281 56.6064 208.458 56.0537 206.912C53.9614 199.661 52.777 192.172 51.5532 184.722C51.2768 183.494 51.7901 181.988 53.0139 181.513C54.0009 181.156 55.3036 181.077 56.1327 181.83C56.7249 182.345 56.8828 183.177 57.0012 183.93C57.8697 189.715 58.8567 195.461 60.2779 201.127C62.6466 196.61 65.0153 192.093 67.384 187.536C67.7394 186.862 68.1736 186.188 68.8053 185.792C69.6738 185.237 70.9371 185.277 71.6872 186.069C72.2794 186.703 72.5162 187.615 72.6742 188.447C73.3848 192.172 74.3323 195.897 75.714 199.423C76.3062 194.074 77.0563 188.645 78.9907 183.613C79.425 182.543 79.8198 181.473 80.5304 180.601ZM93.9136 183.494C96.4797 183.177 99.2432 184.049 100.98 185.99C102.401 187.615 103.191 189.715 103.467 191.815C103.902 195.421 103.23 199.225 101.493 202.435C100.506 204.257 99.2432 206.041 97.4271 207.11C94.7821 208.735 91.229 208.537 88.6629 206.833C86.6101 205.407 85.4652 203.029 84.9914 200.652C84.044 195.223 85.6626 189.2 89.7289 185.435C90.9132 184.366 92.3739 183.692 93.9136 183.494ZM94.4268 189.041C93.2029 189.438 92.4134 190.587 91.7422 191.617C90.0842 194.312 89.6104 197.838 90.9527 200.731C91.308 201.484 91.8607 202.316 92.7687 202.474C93.7162 202.633 94.5847 202.078 95.2558 201.484C96.756 200.176 97.5061 198.234 97.9009 196.293C98.2957 194.113 98.0983 191.696 96.835 189.794C96.3218 189.081 95.2953 188.764 94.4268 189.041ZM114.403 183.494C116.89 183.177 119.614 183.969 121.351 185.832C122.93 187.536 123.759 189.794 123.996 192.093C124.351 195.58 123.72 199.225 122.062 202.316C121.075 204.178 119.772 206.001 117.877 207.11C115.35 208.656 111.955 208.497 109.429 206.992C107.731 205.961 106.586 204.218 105.915 202.355C104.138 196.689 105.639 190.032 109.744 185.752C111.087 184.564 112.705 183.692 114.403 183.494ZM114.956 189.041C113.613 189.517 112.824 190.825 112.113 191.974C110.613 194.629 110.218 198.076 111.6 200.889C111.955 201.682 112.626 202.435 113.534 202.474C114.521 202.514 115.39 201.88 116.1 201.206C117.64 199.701 118.311 197.561 118.548 195.461C118.785 193.519 118.469 191.419 117.324 189.755C116.851 189.081 115.824 188.764 114.956 189.041Z" fill="white"/>
<path fill-rule="evenodd" clip-rule="evenodd" d="M141.801 184.246C143.972 183.771 146.262 183.81 148.433 184.325C148.433 186.109 148.433 187.892 148.433 189.675C146.657 189.239 144.643 188.843 142.946 189.675C140.893 190.705 139.748 193.043 139.748 195.262C139.629 197.481 140.379 199.977 142.353 201.245C144.169 202.434 146.499 202.196 148.473 201.642C148.473 203.425 148.473 205.208 148.473 206.991C145.827 207.744 142.946 207.665 140.379 206.714C137.3 205.565 134.852 202.87 133.905 199.7C133.194 197.283 133.115 194.707 133.668 192.25C134.576 188.328 137.892 185.118 141.801 184.246ZM157.829 183.969C160.513 183.652 163.435 184.088 165.606 185.792C167.699 187.416 168.725 190.071 169.12 192.607C169.475 195.421 169.396 198.353 168.528 201.047C167.777 203.346 166.238 205.485 164.027 206.555C161.777 207.625 159.132 207.704 156.724 207.15C154.513 206.634 152.539 205.168 151.433 203.147C149.894 200.453 149.617 197.243 149.736 194.192C149.854 191.577 150.525 188.843 152.262 186.822C153.684 185.197 155.737 184.207 157.829 183.969ZM158.658 189.08C157.513 189.358 156.842 190.507 156.566 191.577C156.013 193.717 156.092 195.936 156.25 198.115C156.408 199.304 156.526 200.572 157.355 201.523C158.461 202.791 160.711 202.632 161.698 201.325C162.369 200.493 162.566 199.423 162.685 198.392C162.922 196.57 162.961 194.707 162.685 192.884C162.487 191.775 162.172 190.626 161.382 189.794C160.671 189.08 159.605 188.843 158.658 189.08ZM263.947 184.325C266.237 183.731 268.645 183.81 270.935 184.286C270.974 186.069 270.935 187.852 270.974 189.675C269.237 189.239 267.303 188.843 265.605 189.596C263.631 190.507 262.447 192.607 262.289 194.707C262.052 197.085 262.684 199.779 264.776 201.166C266.592 202.434 268.961 202.196 270.974 201.602C270.935 203.385 271.014 205.208 270.935 206.991C268.132 207.704 265.052 207.625 262.407 206.476C259.486 205.208 257.196 202.513 256.367 199.423C255.735 197.045 255.656 194.509 256.249 192.092C257.117 188.367 260.236 185.316 263.947 184.325ZM172.633 184.484C175.16 184.484 177.726 184.484 180.253 184.484C181.161 188.605 182.029 192.766 182.819 196.926C183.529 192.726 184.516 188.605 185.503 184.484C188.109 184.484 190.714 184.484 193.32 184.484C194.346 191.973 195.333 199.462 196.32 206.912C194.346 206.912 192.333 206.912 190.359 206.912C189.806 201.8 189.333 196.649 188.741 191.537C187.517 196.649 186.253 201.8 185.03 206.912C183.687 206.912 182.306 206.912 180.963 206.912C179.661 201.8 178.397 196.649 177.055 191.498C176.542 196.609 176.028 201.761 175.515 206.912C173.62 206.912 171.725 206.912 169.791 206.912C170.738 199.462 171.686 191.973 172.633 184.484ZM199.952 184.484C202.479 184.484 205.045 184.484 207.572 184.484C208.48 188.605 209.348 192.766 210.138 196.926C210.888 192.766 211.835 188.605 212.822 184.484H220.6C221.626 191.973 222.613 199.462 223.6 206.912C221.626 206.912 219.613 206.912 217.639 206.912C217.086 201.8 216.573 196.649 216.02 191.537C214.796 196.649 213.572 201.8 212.309 206.912C210.967 206.912 209.585 206.912 208.243 206.912C206.94 201.761 205.637 196.649 204.335 191.498C203.821 196.649 203.308 201.761 202.795 206.912C200.9 206.912 199.005 206.912 197.071 206.912C198.057 199.462 199.005 191.973 199.952 184.484ZM225.337 184.563C229.403 184.484 233.509 184.563 237.575 184.524C237.575 186.109 237.575 187.694 237.575 189.318C235.522 189.358 233.47 189.318 231.417 189.318C231.417 190.705 231.417 192.052 231.417 193.439C233.193 193.439 234.97 193.439 236.746 193.439C236.746 194.985 236.746 196.53 236.746 198.075C234.97 198.075 233.193 198.075 231.417 198.075C231.417 199.423 231.417 200.81 231.417 202.196C233.47 202.196 235.562 202.196 237.615 202.196C237.615 203.781 237.615 205.366 237.615 206.991C233.549 206.991 229.443 206.991 225.377 206.991C225.337 199.502 225.416 192.052 225.337 184.563ZM239.312 184.484C241.879 184.484 244.405 184.444 246.971 184.484C249.379 184.563 251.946 185.158 253.722 186.861C255.341 188.367 255.893 190.864 255.262 192.964C254.748 194.668 253.485 196.055 251.906 196.807C253.485 200.176 255.104 203.544 256.722 206.912C254.591 206.912 252.459 206.912 250.366 206.912C248.708 203.464 247.09 200.017 245.392 196.609C245.353 200.057 245.392 203.504 245.392 206.912C243.379 206.912 241.365 206.912 239.352 206.912C239.312 199.462 239.312 191.973 239.312 184.484ZM245.353 188.803C245.353 190.586 245.353 192.369 245.353 194.152C246.458 194.073 247.642 194.034 248.55 193.36C249.616 192.567 249.498 190.943 248.827 189.913C247.998 188.922 246.537 188.922 245.353 188.803ZM272.672 184.524C276.738 184.524 280.804 184.524 284.871 184.524C284.871 186.109 284.871 187.733 284.871 189.318C282.818 189.318 280.725 189.318 278.672 189.318C278.672 190.705 278.672 192.052 278.672 193.439C280.449 193.439 282.226 193.439 284.002 193.439C284.002 194.985 284.002 196.53 284.002 198.075H278.672C278.672 199.462 278.672 200.81 278.672 202.196C280.765 202.196 282.818 202.196 284.91 202.196C284.91 203.781 284.91 205.366 284.91 206.991C280.844 206.991 276.738 206.991 272.672 206.991C272.632 199.462 272.672 191.973 272.672 184.524Z" fill="#6B7280"/>
</g>
<rect x="575" y="184.652" width="48" height="29.5385" rx="14.7692" fill="#28776D"/>
<rect x="595.308" y="186.498" width="25.8462" height="25.8462" rx="12.9231" fill="white"/>
<defs>
<clipPath id="clip0_3148_43161">
<rect width="237" height="91" fill="white" transform="translate(48 153.922)"/>
</clipPath>
</defs>
</svg>
