<svg width="27" height="20" viewBox="0 0 27 20" fill="none" xmlns="http://www.w3.org/2000/svg">
<rect y="0.478516" width="26.6667" height="19.0476" rx="2" fill="white"/>
<mask id="mask0_2711_21463" style="mask-type:alpha" maskUnits="userSpaceOnUse" x="0" y="0" width="27" height="20">
<rect y="0.478516" width="26.6667" height="19.0476" rx="2" fill="white"/>
</mask>
<g mask="url(#mask0_2711_21463)">
<rect y="0.478516" width="26.6667" height="19.0476" fill="#0A17A7"/>
<path fill-rule="evenodd" clip-rule="evenodd" d="M-1.22143 -1.34668L10.1587 6.32934V-0.791318H16.5079V6.3293L27.888 -1.34667L29.3082 0.758818L20.3107 6.82773H26.6667V13.1769H20.3107L29.3082 19.2458L27.888 21.3513L16.5079 13.6753V20.796H10.1587V13.6753L-1.22142 21.3513L-2.6416 19.2458L6.35591 13.1769H8.34465e-06V6.82773H6.35594L-2.6416 0.758812L-1.22143 -1.34668Z" fill="white"/>
<path fill-rule="evenodd" clip-rule="evenodd" d="M30.1508 -1.63002C30.2632 -1.45913 30.2158 -1.22947 30.0449 -1.11705L17.9827 6.81838C17.8118 6.9308 17.5821 6.8834 17.4697 6.71252C17.3573 6.54163 17.4047 6.31196 17.5755 6.19954L29.6378 -1.73588C29.8087 -1.8483 30.0384 -1.80091 30.1508 -1.63002Z" fill="#DB1F35"/>
<path fill-rule="evenodd" clip-rule="evenodd" d="M30.1802 21.0192C30.2945 20.8496 30.2497 20.6194 30.08 20.5051L19.2669 13.2167C19.0973 13.1024 18.8671 13.1472 18.7527 13.3168C18.6384 13.4864 18.6832 13.7166 18.8529 13.8309L29.666 21.1193C29.8357 21.2337 30.0658 21.1888 30.1802 21.0192Z" fill="#DB1F35"/>
<path fill-rule="evenodd" clip-rule="evenodd" d="M-3.96187 -1.31998C-3.84755 -1.4896 -3.61738 -1.53444 -3.44775 -1.42012L7.83132 6.18125C8.00094 6.29557 8.04578 6.52575 7.93146 6.69537C7.81714 6.865 7.58697 6.90983 7.41734 6.79552L-3.86173 -0.805858C-4.03135 -0.920174 -4.07619 -1.15035 -3.96187 -1.31998Z" fill="#DB1F35"/>
<path fill-rule="evenodd" clip-rule="evenodd" d="M-3.9634 21.931C-3.85035 22.1014 -3.62051 22.148 -3.45004 22.0349L9.05236 13.7439C9.22283 13.6309 9.26938 13.401 9.15633 13.2306C9.04328 13.0601 8.81345 13.0135 8.64297 13.1266L-3.85943 21.4176C-4.0299 21.5307 -4.07645 21.7605 -3.9634 21.931Z" fill="#DB1F35"/>
<path fill-rule="evenodd" clip-rule="evenodd" d="M0 11.9071H11.4286V19.5261H15.2381V11.9071H26.6667V8.09756H15.2381V0.478516H11.4286V8.09756H0V11.9071Z" fill="#E6273E"/>
</g>
</svg>
