<svg width="41" height="25" viewBox="0 0 41 25" fill="none" xmlns="http://www.w3.org/2000/svg">
<path fill-rule="evenodd" clip-rule="evenodd" d="M20.1132 21.6739C17.9853 23.4621 15.2251 24.5415 12.209 24.5415C5.47911 24.5415 0.0234375 19.1671 0.0234375 12.5374C0.0234375 5.90765 5.47911 0.533203 12.209 0.533203C15.2251 0.533203 17.9853 1.61268 20.1132 3.40084C22.241 1.61268 25.0012 0.533203 28.0174 0.533203C34.7473 0.533203 40.2029 5.90765 40.2029 12.5374C40.2029 19.1671 34.7473 24.5415 28.0174 24.5415C25.0012 24.5415 22.241 23.4621 20.1132 21.6739Z" fill="#111827"/>
<path fill-rule="evenodd" clip-rule="evenodd" d="M20.1133 21.6739C22.7333 19.4721 24.3947 16.1959 24.3947 12.5374C24.3947 8.87887 22.7333 5.60262 20.1133 3.40084C22.2411 1.61268 25.0013 0.533203 28.0175 0.533203C34.7474 0.533203 40.203 5.90765 40.203 12.5374C40.203 19.1671 34.7474 24.5415 28.0175 24.5415C25.0013 24.5415 22.2411 23.4621 20.1133 21.6739Z" fill="#9CA3AF"/>
<path fill-rule="evenodd" clip-rule="evenodd" d="M20.1134 21.6733C22.7334 19.4715 24.3948 16.1953 24.3948 12.5368C24.3948 8.87836 22.7334 5.60213 20.1134 3.40035C17.4934 5.60213 15.832 8.87836 15.832 12.5368C15.832 16.1953 17.4934 19.4715 20.1134 21.6733Z" fill="#111827"/>
</svg>
