<svg width="31" height="32" viewBox="0 0 31 32" fill="none" xmlns="http://www.w3.org/2000/svg">
<path fill-rule="evenodd" clip-rule="evenodd" d="M30.4741 16.0007C30.4741 24.4159 23.6523 31.2378 15.2371 31.2378C6.82187 31.2378 0 24.4159 0 16.0007C0 7.58554 6.82187 0.763672 15.2371 0.763672C23.6523 0.763672 30.4741 7.58554 30.4741 16.0007ZM18.8976 10.3397C21.0172 11.0675 22.5676 12.1574 22.2634 14.1856C22.0425 15.6708 21.2161 16.3891 20.1181 16.6406C21.6245 17.4218 22.1379 18.9044 21.6609 20.6971C20.7551 23.277 18.6021 23.4942 15.7384 22.955L15.0431 25.7282L13.3645 25.3109L14.0503 22.5749C13.6151 22.4672 13.1703 22.3519 12.7122 22.229L12.0235 24.9785L10.3468 24.5612L11.0412 21.7822L7.66009 20.9324L8.49413 19.0176C8.49413 19.0176 9.7318 19.3443 9.71459 19.3205C10.1899 19.4377 10.4013 19.129 10.4845 18.9242L12.3688 11.3971C12.3898 11.0418 12.2664 10.594 11.5864 10.4244C11.6122 10.4063 10.3669 10.1224 10.3669 10.1224L10.8136 8.33618L14.1995 9.17168L14.8881 6.42417L16.5658 6.84144L15.8915 9.53465C16.3429 9.63658 16.7963 9.74043 17.2372 9.84998L17.9067 7.17392L19.5853 7.59119L18.8976 10.3397ZM14.8812 14.9229C16.0247 15.226 18.5128 15.8857 18.9465 14.1561C19.3889 12.3865 16.9716 11.852 15.788 11.5904L15.7879 11.5903L15.7879 11.5903C15.6538 11.5607 15.5356 11.5345 15.4391 11.5105L14.6032 14.8506C14.6828 14.8703 14.7764 14.8951 14.8812 14.9229ZM13.5857 20.3004C14.9553 20.6612 17.9506 21.4502 18.4272 19.5443C18.915 17.5956 16.0109 16.9466 14.5939 16.6299C14.4356 16.5945 14.2958 16.5632 14.1814 16.5348L13.2594 20.2159C13.353 20.2391 13.4627 20.268 13.5854 20.3004L13.5857 20.3004Z" fill="#F7931A"/>
</svg>
