<svg width="204" height="65" viewBox="0 0 204 65" fill="none" xmlns="http://www.w3.org/2000/svg">
<g clip-path="url(#clip0_2435_186483)">
<path d="M130.772 30.7274V26.8274H132.069V25.4092H127.824V26.8274H129.121V30.7274H130.772Z" fill="#111827"/>
<path d="M165.322 29.4274H165.676L166.384 30.7274H167.917L166.973 29.0728C167.209 28.9546 167.445 28.7183 167.563 28.3637C167.681 28.1274 167.799 27.7728 167.799 27.4183C167.799 27.0637 167.681 26.7092 167.563 26.3546C167.445 26.0001 167.209 25.7637 166.855 25.6455C166.502 25.5274 166.148 25.4092 165.794 25.4092H163.672V30.7274H165.205L165.322 29.4274ZM165.322 26.8274H165.912C166.148 26.8274 166.266 26.8274 166.384 26.9455C166.502 27.0637 166.502 27.1819 166.502 27.4183C166.502 27.6546 166.502 27.7728 166.384 27.891C166.266 28.0092 166.148 28.0092 165.912 28.0092H165.322V26.8274Z" fill="#111827"/>
<path d="M145.866 25.4092V28.2455C145.866 29.0728 146.102 29.6637 146.456 30.0183C146.809 30.491 147.399 30.6092 147.989 30.6092C148.696 30.6092 149.168 30.3728 149.521 30.0183C149.875 29.5455 150.111 28.9546 150.111 28.2455V25.4092H148.696V28.2455C148.696 28.6001 148.696 28.9546 148.578 29.0728C148.46 29.191 148.342 29.3092 148.106 29.3092C147.871 29.3092 147.753 29.191 147.635 29.0728C147.517 28.9546 147.517 28.6001 147.517 28.2455V25.4092H145.866Z" fill="#111827"/>
<path d="M141.621 20.0905V9.4541H133.131C132.305 9.4541 131.598 9.80865 131.008 10.3996C130.418 10.9905 130.065 11.6996 130.065 12.5268V20.0905H132.541V12.5268C132.541 12.4086 132.659 12.1723 132.777 12.0541C132.895 11.9359 133.013 11.8177 133.249 11.8177H139.38V20.0905H141.621Z" fill="#111827"/>
<path d="M163.318 17.4905C163.2 17.6086 162.964 17.7268 162.846 17.7268H155.417V20.0905H163.082C163.907 20.0905 164.497 19.7359 165.087 19.145C165.676 18.5541 165.912 17.845 165.912 16.8996V13.5905H157.54V12.5268C157.54 12.4086 157.658 12.1723 157.776 12.0541C157.894 11.9359 158.129 11.8177 158.247 11.8177H165.912V9.4541H158.247C157.422 9.4541 156.832 9.80865 156.243 10.3996C155.653 10.9905 155.417 11.6996 155.417 12.645V15.9541H163.554V17.1359C163.554 17.2541 163.436 17.3723 163.318 17.4905Z" fill="#111827"/>
<path d="M204 13.7086V9.57227H195.392C194.566 9.57227 193.859 9.92681 193.269 10.5177C192.68 11.1086 192.326 11.8177 192.326 12.645V20.0904H194.684V16.7814H199.637L201.406 20.0904H203.764L201.995 16.545C202.349 16.4268 202.703 16.1904 203.057 15.8359C203.764 15.3632 204 14.5359 204 13.7086ZM201.642 13.7086C201.642 13.945 201.642 14.0632 201.524 14.1814C201.406 14.2995 201.288 14.4177 201.052 14.4177H194.802V12.645C194.802 12.5268 194.92 12.2904 195.038 12.1723C195.156 12.0541 195.274 11.9359 195.51 11.9359H201.759V13.7086H201.642Z" fill="#111827"/>
<path d="M174.52 20.0904V11.9359H178.647V9.57227H168.035V11.9359H172.28V20.0904H174.52Z" fill="#111827"/>
<path d="M202.349 29.3092C202.231 29.3092 202.113 29.4273 201.877 29.4273C201.642 29.4273 201.406 29.4273 201.052 29.3092C200.816 29.191 200.58 29.0728 200.344 28.9546L199.873 30.2546C200.109 30.3728 200.462 30.491 200.816 30.6092C201.17 30.7273 201.524 30.7273 201.995 30.7273C202.467 30.7273 202.821 30.6092 203.175 30.491C203.528 30.3728 203.764 30.1364 203.882 29.9001C204 29.6637 204.118 29.3092 204.118 29.0728C204.118 28.7183 204 28.3637 203.882 28.2455C203.646 28.0092 203.528 27.891 203.292 27.7728C203.057 27.6546 202.703 27.5364 202.349 27.5364C202.113 27.5364 201.877 27.4183 201.76 27.4183C201.642 27.4183 201.524 27.3001 201.524 27.1819C201.524 26.9455 201.76 26.8273 202.113 26.8273C202.467 26.8273 202.939 26.9455 203.41 27.1819L203.882 26.0001C203.646 25.8819 203.41 25.7637 203.057 25.6455C202.703 25.5273 202.467 25.5273 202.113 25.5273C201.642 25.5273 201.288 25.6455 200.934 25.7637C200.58 25.8819 200.344 26.1183 200.227 26.3546C200.109 26.591 199.991 26.9455 199.991 27.1819C199.991 27.5364 200.109 27.891 200.227 28.0092C200.462 28.2455 200.58 28.3637 200.816 28.4819C201.052 28.6001 201.406 28.7183 201.76 28.7183C201.995 28.8364 202.231 28.8364 202.349 28.8364C202.467 28.8364 202.585 28.9546 202.585 29.0728C202.467 29.191 202.349 29.3092 202.349 29.3092Z" fill="#111827"/>
<path d="M190.204 9.57227H182.539C181.713 9.57227 181.124 9.92681 180.534 10.5177C179.945 11.1086 179.709 11.8177 179.709 12.7632V20.0904H181.949V17.3723H187.963V20.0904H190.204V9.57227V9.57227ZM181.949 15.0086V12.5268C181.949 12.4086 182.067 12.2904 182.067 12.0541C182.185 11.9359 182.303 11.9359 182.539 11.9359H187.963V15.0086H181.949Z" fill="#111827"/>
<path d="M187.02 26.8273V25.5273H182.893V30.7273H187.138V29.4273H184.543V28.7183H186.666V27.4183H184.543V26.8273H187.02V26.8273Z" fill="#111827"/>
<path d="M153.295 14.8904H150.936V17.7268H144.923V12.645C144.923 12.4086 145.041 12.2904 145.158 12.1723C145.276 12.0541 145.394 11.9359 145.63 11.9359H152.823V9.57227H145.63C144.805 9.57227 144.097 9.92681 143.508 10.5177C142.918 11.1086 142.682 11.8177 142.682 12.7632V20.0904H153.295V14.8904Z" fill="#111827"/>
<path d="M99.5236 19.145C100.113 18.5541 100.467 17.845 100.467 16.8995V9.57227H91.8589C91.0334 9.57227 90.3259 9.92681 89.7363 10.5177C89.1467 11.1086 88.793 11.8177 88.793 12.7632V17.0177C88.793 17.845 89.1467 18.6723 89.7363 19.2632C90.3259 19.8541 91.0334 20.2086 91.8589 20.2086H97.4011C98.2265 20.0904 98.934 19.8541 99.5236 19.145ZM92.5664 17.7268H91.8589C91.623 17.7268 91.5051 17.7268 91.3872 17.6086C91.2693 17.4904 91.1514 17.3723 91.1514 17.1359V12.5268C91.1514 12.4086 91.2693 12.2904 91.3872 12.0541C91.5051 11.9359 91.623 11.9359 91.8589 11.9359H92.5664H97.9907V17.1359C97.9907 17.2541 97.8727 17.3723 97.7548 17.6086C97.6369 17.7268 97.519 17.7268 97.2831 17.7268H96.5756H92.5664Z" fill="#111827"/>
<path d="M129.003 9.57227H126.881V20.2086H129.003V9.57227Z" fill="#111827"/>
<path d="M96.104 26.8273V25.5273H91.9768V30.7273H96.2219V29.4273H93.6277V28.7183H95.7502V27.4183H93.6277V26.8273H96.104V26.8273Z" fill="#111827"/>
<path d="M75.5862 25.4092H73.9353L75.822 30.7274H77.355L79.2417 25.4092H77.8266L76.6474 28.4819L75.5862 25.4092Z" fill="#111827"/>
<path d="M87.7318 20.0905V9.4541H77.0012C76.1758 9.4541 75.4682 9.80865 74.8787 10.3996C74.2891 10.9905 73.9353 11.6996 73.9353 12.5268V20.0905H76.2937V12.5268C76.2937 12.4086 76.4116 12.1723 76.5295 12.0541C76.6474 11.9359 76.7654 11.8177 77.0012 11.8177H79.5954V20.0905H81.9538V11.9359H85.2555V20.0905H87.7318Z" fill="#111827"/>
<path d="M111.316 28.3637L112.967 30.7274H114.146V25.4092H112.731V27.7728L111.08 25.4092H109.901V30.7274H111.316V28.3637Z" fill="#111827"/>
<path d="M125.82 20.0905V9.4541H117.33C116.504 9.4541 115.797 9.80865 115.207 10.3996C114.617 10.9905 114.264 11.6996 114.264 12.5268V20.0905H116.74V12.5268C116.74 12.4086 116.858 12.1723 116.976 12.0541C117.094 11.9359 117.212 11.8177 117.447 11.8177H123.579V20.0905H125.82Z" fill="#111827"/>
<path d="M113.084 13.7086V9.57227H104.476C103.651 9.57227 102.943 9.92681 102.354 10.5177C101.764 11.1086 101.41 11.8177 101.41 12.645V20.0904H103.769V16.7814H108.721L110.49 20.0904H112.849L111.08 16.545C111.434 16.4268 111.787 16.1904 112.141 15.8359C112.849 15.3632 113.084 14.5359 113.084 13.7086ZM110.726 13.7086C110.726 13.945 110.726 14.0632 110.608 14.1814C110.49 14.2995 110.372 14.4177 110.136 14.4177H103.887V12.645C103.887 12.5268 104.005 12.2904 104.123 12.1723C104.24 12.0541 104.358 11.9359 104.594 11.9359H110.844V13.7086H110.726Z" fill="#111827"/>
<path d="M41.6254 25.4091L0 64.6455L39.1491 22.9273C41.1538 20.6818 41.2717 17.3727 39.385 15.1273L26.4139 0L41.6254 13.1182C43.8659 15.0091 47.0497 15.0091 49.2902 13.1182L64.5017 0L51.4127 15.2455C49.526 17.4909 49.526 20.6818 51.4127 22.9273L64.5017 38.1727L49.4081 25.1727C47.1676 23.2818 43.748 23.2818 41.6254 25.4091Z" fill="#111827"/>
</g>
<defs>
<clipPath id="clip0_2435_186483">
<rect width="204" height="65" fill="white"/>
</clipPath>
</defs>
</svg>
