<svg width="32" height="32" viewBox="0 0 32 32" fill="none" xmlns="http://www.w3.org/2000/svg">
<g clip-path="url(#clip0_2030_189121)">
<path fill-rule="evenodd" clip-rule="evenodd" d="M32 16C32 24.8366 24.8366 32 16 32C7.16344 32 0 24.8366 0 16C0 7.16344 7.16344 0 16 0C24.8366 0 32 7.16344 32 16ZM16.5735 11.8119C15.0173 12.4592 11.907 13.7989 7.24269 15.8311C6.48527 16.1323 6.08851 16.427 6.05239 16.7151C5.99134 17.202 6.60111 17.3937 7.43146 17.6548C7.54441 17.6903 7.66144 17.7271 7.78141 17.7661C8.59835 18.0317 9.69726 18.3424 10.2685 18.3547C10.7868 18.3659 11.3651 18.1523 12.0037 17.7138C16.3617 14.772 18.6113 13.2851 18.7526 13.253C18.8522 13.2304 18.9903 13.202 19.0838 13.2851C19.1774 13.3683 19.1682 13.5258 19.1583 13.568C19.0979 13.8255 16.7043 16.0508 15.4657 17.2024C15.0795 17.5614 14.8056 17.816 14.7496 17.8742C14.6242 18.0045 14.4963 18.1277 14.3735 18.2461C13.6145 18.9778 13.0454 19.5264 14.405 20.4224C15.0583 20.8529 15.5812 21.209 16.1027 21.5642C16.6724 21.9521 17.2405 22.339 17.9756 22.8209C18.1629 22.9437 18.3418 23.0712 18.516 23.1954C19.1789 23.668 19.7745 24.0926 20.5103 24.0248C20.9378 23.9855 21.3794 23.5835 21.6037 22.3845C22.1338 19.5509 23.1757 13.4113 23.4165 10.8813C23.4375 10.6596 23.411 10.376 23.3897 10.2514C23.3684 10.1269 23.3239 9.94948 23.162 9.81813C22.9703 9.66258 22.6743 9.62978 22.542 9.63211C21.9402 9.64271 21.0169 9.96376 16.5735 11.8119Z" fill="#111827"/>
</g>
<defs>
<clipPath id="clip0_2030_189121">
<rect width="32" height="32" fill="white"/>
</clipPath>
</defs>
</svg>
