<svg width="43" height="15" viewBox="0 0 43 15" fill="none" xmlns="http://www.w3.org/2000/svg">
<path fill-rule="evenodd" clip-rule="evenodd" d="M11.2492 13.9334H7.60739L4.87644 3.06538C4.74681 2.56545 4.47159 2.12348 4.06674 1.91518C3.05639 1.3917 1.94306 0.975093 0.728516 0.764977V0.346559H6.59527C7.40496 0.346559 8.01224 0.975093 8.11345 1.70506L9.53042 9.54453L13.1705 0.346559H16.7112L11.2492 13.9334ZM18.7354 13.9334H15.296L18.1281 0.346559H21.5676L18.7354 13.9334ZM26.0173 4.11052C26.1186 3.37874 26.7258 2.96032 27.4343 2.96032C28.5477 2.85527 29.7604 3.06538 30.7725 3.58705L31.3798 0.661737C30.3677 0.243318 29.2544 0.0332031 28.244 0.0332031C24.9058 0.0332031 22.4767 1.91518 22.4767 4.52713C22.4767 6.51417 24.1973 7.5575 25.4119 8.18603C26.7258 8.81275 27.2319 9.23117 27.1307 9.8579C27.1307 10.798 26.1186 11.2164 25.1082 11.2164C23.8937 11.2164 22.6791 10.903 21.5676 10.3796L20.9603 13.3067C22.1748 13.8283 23.4888 14.0385 24.7034 14.0385C28.4464 14.1417 30.7725 12.2615 30.7725 9.43948C30.7725 5.88563 26.0173 5.67733 26.0173 4.11052ZM42.8097 13.9334L40.0787 0.346559H37.1453C36.5381 0.346559 35.9308 0.764977 35.7284 1.3917L30.6713 13.9334H34.212L34.9187 11.9482H39.269L39.6739 13.9334H42.8097ZM37.6514 4.00548L38.6618 9.12613H35.8296L37.6514 4.00548Z" fill="#111827"/>
</svg>
